<svg id="svg" version="1.1" xmlns="http://www.w3.org/2000/svg" xmlns:xlink="http://www.w3.org/1999/xlink" width="400" height="161.77777777777777" viewBox="0, 0, 400,161.77777777777777"><g id="svgg"><path id="path0" d="M36.833 16.240 C 36.833 16.594,36.921 16.627,40.040 17.412 C 43.213 18.212,43.716 18.515,43.908 19.743 C 43.958 20.068,44.041 20.596,44.091 20.916 C 44.215 21.716,44.636 21.901,48.059 22.659 C 50.976 23.305,55.507 24.358,61.750 25.840 C 63.675 26.297,66.262 26.890,67.500 27.159 C 71.455 28.018,72.838 28.336,74.058 28.667 C 74.714 28.845,77.612 29.513,80.500 30.152 C 83.387 30.791,86.537 31.501,87.500 31.731 C 88.462 31.961,90.600 32.456,92.250 32.831 C 93.900 33.206,96.188 33.730,97.333 33.997 C 98.479 34.263,100.467 34.719,101.750 35.011 C 103.033 35.303,104.214 35.609,104.373 35.692 C 105.127 36.085,105.296 37.266,106.000 47.083 C 106.079 48.183,106.224 49.719,106.322 50.496 C 106.420 51.272,106.500 52.460,106.500 53.134 C 106.500 53.808,106.572 55.048,106.659 55.888 C 106.747 56.729,106.938 58.804,107.084 60.500 C 107.230 62.196,107.420 64.371,107.507 65.333 C 107.593 66.296,107.738 68.096,107.828 69.333 C 108.099 73.072,108.474 77.575,108.785 80.833 C 109.372 86.983,109.372 86.983,106.823 87.926 C 101.452 89.913,98.198 92.919,97.086 96.924 C 96.318 99.689,96.598 108.839,97.477 109.718 C 98.343 110.583,99.199 109.605,98.769 108.242 C 97.915 105.531,97.728 100.385,98.394 97.917 C 99.599 93.451,99.547 93.561,100.942 92.505 C 104.011 90.182,107.539 88.994,122.500 85.248 C 127.519 83.991,132.498 82.631,134.833 81.879 C 146.564 78.099,148.297 78.092,150.152 81.817 C 150.993 83.506,151.665 87.735,151.666 91.349 C 151.667 92.789,151.901 93.167,152.793 93.167 C 153.948 93.167,153.970 92.962,153.398 87.583 C 152.546 79.572,150.013 76.966,143.783 77.692 C 142.757 77.812,141.433 77.911,140.841 77.913 L 139.765 77.917 139.564 77.333 C 139.453 77.012,139.277 75.362,139.173 73.667 C 139.070 71.971,138.912 69.946,138.823 69.167 C 138.735 68.387,138.591 66.850,138.504 65.750 C 138.266 62.742,138.015 60.228,137.815 58.833 C 137.716 58.146,137.571 56.458,137.492 55.083 C 137.413 53.708,137.232 51.308,137.090 49.750 C 136.525 43.543,136.527 43.501,137.291 43.184 C 137.869 42.945,138.690 43.101,149.000 45.416 C 150.421 45.734,152.483 46.187,153.583 46.422 C 154.683 46.657,157.083 47.216,158.917 47.665 C 162.479 48.537,164.708 49.047,166.583 49.418 C 167.225 49.545,169.250 49.996,171.083 50.419 C 177.233 51.839,180.716 52.637,186.250 53.895 C 189.275 54.582,193.362 55.529,195.333 55.999 C 197.304 56.469,199.667 57.000,200.583 57.180 C 201.500 57.360,203.338 57.766,204.667 58.083 C 205.996 58.401,208.433 58.957,210.083 59.320 C 213.369 60.043,220.308 61.661,226.167 63.070 C 228.229 63.567,232.392 64.549,235.417 65.255 C 241.273 66.619,241.758 66.780,242.007 67.435 C 242.095 67.666,242.167 69.904,242.167 72.409 C 242.167 74.913,242.253 78.865,242.358 81.190 C 242.462 83.514,242.533 85.979,242.514 86.667 C 242.432 89.729,242.470 91.831,242.723 98.000 C 242.871 101.621,243.067 108.146,243.158 112.500 C 243.250 116.854,243.371 121.617,243.428 123.083 C 243.539 125.969,243.330 128.906,242.973 129.487 C 242.749 129.851,242.411 130.032,238.790 131.727 C 233.476 134.215,231.306 136.611,229.483 142.000 C 228.825 143.944,228.581 147.706,228.737 153.516 C 228.814 156.433,228.786 157.271,228.585 157.933 C 227.969 159.964,228.609 161.128,230.386 161.205 C 231.664 161.261,232.043 160.018,231.337 158.083 C 231.006 157.175,230.965 156.665,230.882 152.500 L 230.791 147.917 231.601 144.833 C 232.265 142.302,232.411 141.492,232.413 140.306 C 232.417 138.672,232.783 138.000,233.671 138.000 C 234.118 138.000,235.200 137.322,235.667 136.749 C 236.672 135.514,240.014 133.620,244.583 131.696 C 245.867 131.156,248.379 130.095,250.167 129.340 C 251.954 128.584,255.292 127.179,257.583 126.217 C 259.875 125.256,262.950 123.945,264.417 123.305 C 282.162 115.557,282.728 115.503,284.392 121.413 C 284.909 123.249,285.060 123.383,285.980 122.822 C 286.701 122.382,286.658 121.257,285.845 119.305 C 284.180 115.304,281.711 114.125,277.396 115.270 C 274.931 115.924,274.736 115.938,274.476 115.475 C 274.298 115.158,274.245 111.185,274.196 94.667 L 274.136 74.250 274.486 73.805 C 274.740 73.483,275.286 73.213,276.460 72.830 C 277.353 72.538,279.021 71.828,280.167 71.252 C 281.313 70.675,283.600 69.705,285.250 69.097 C 286.900 68.488,288.925 67.732,289.750 67.416 C 290.575 67.101,292.750 66.323,294.583 65.688 C 296.417 65.054,299.304 63.996,301.000 63.337 C 303.718 62.281,306.609 61.300,315.583 58.387 C 316.867 57.971,319.079 57.159,320.500 56.584 C 321.921 56.009,324.471 55.070,326.167 54.496 C 327.862 53.923,331.462 52.632,334.167 51.626 C 336.871 50.620,341.521 48.916,344.500 47.839 C 354.297 44.297,354.500 44.189,354.500 42.469 C 354.500 42.019,354.609 41.440,354.742 41.182 C 355.009 40.666,354.886 40.726,360.081 38.590 C 363.742 37.084,364.333 36.725,364.333 36.004 C 364.333 34.923,363.929 34.933,360.494 36.097 C 353.970 38.309,347.127 40.640,343.333 41.942 C 341.087 42.713,338.575 43.557,337.750 43.819 C 336.925 44.080,333.925 45.100,331.083 46.086 C 328.242 47.071,324.004 48.534,321.667 49.336 C 319.329 50.139,315.992 51.303,314.250 51.924 C 312.508 52.544,310.258 53.334,309.250 53.679 C 307.085 54.420,304.712 55.271,301.167 56.579 C 299.746 57.103,298.321 57.608,298.000 57.701 C 297.679 57.794,296.322 58.307,294.985 58.840 C 288.223 61.537,274.138 65.923,272.667 65.789 C 271.719 65.703,266.664 64.781,264.250 64.254 C 261.192 63.586,248.262 60.869,244.753 60.158 C 243.837 59.972,242.487 59.666,241.753 59.478 C 241.018 59.290,239.385 58.917,238.125 58.651 C 232.065 57.370,231.131 57.167,229.500 56.771 C 228.537 56.538,226.137 56.004,224.167 55.584 C 222.196 55.164,219.533 54.568,218.250 54.260 C 216.967 53.951,213.517 53.162,210.583 52.506 C 207.650 51.850,203.825 50.988,202.083 50.591 C 200.342 50.193,197.567 49.593,195.917 49.258 C 194.267 48.922,191.754 48.391,190.333 48.078 C 187.438 47.440,184.643 46.831,181.917 46.245 C 180.908 46.028,178.696 45.542,177.000 45.164 C 173.758 44.441,169.536 43.554,164.675 42.574 C 162.186 42.073,161.572 42.004,160.425 42.096 C 159.095 42.203,159.079 42.199,158.554 41.695 C 158.263 41.416,157.700 41.101,157.304 40.994 C 156.908 40.888,155.983 40.625,155.250 40.411 C 153.579 39.922,151.181 39.501,150.062 39.501 C 149.592 39.500,148.953 39.394,148.642 39.264 C 148.027 39.007,144.781 38.225,142.000 37.664 C 141.037 37.469,139.612 37.161,138.833 36.978 C 138.054 36.795,136.367 36.428,135.083 36.162 C 133.800 35.895,131.512 35.417,130.000 35.098 C 124.265 33.890,119.847 32.967,117.917 32.573 C 116.817 32.349,114.942 31.946,113.750 31.678 C 112.558 31.410,110.346 30.925,108.833 30.601 C 101.330 28.991,99.704 28.645,97.083 28.101 C 95.525 27.778,93.313 27.317,92.167 27.078 C 91.021 26.838,87.908 26.192,85.250 25.643 C 82.592 25.093,78.992 24.345,77.250 23.981 C 75.508 23.616,70.821 22.651,66.833 21.837 C 62.846 21.023,59.208 20.276,58.750 20.177 C 57.932 20.000,55.204 19.467,48.917 18.256 C 47.175 17.921,44.587 17.395,43.167 17.087 C 38.053 15.981,36.833 15.818,36.833 16.240 M111.407 37.173 C 112.971 37.543,115.600 38.175,117.250 38.578 C 118.900 38.980,121.074 39.505,122.080 39.744 C 125.871 40.644,125.780 40.859,120.083 44.456 C 118.067 45.729,115.194 47.591,113.699 48.594 C 109.403 51.476,109.560 51.385,109.092 51.267 C 108.192 51.041,108.031 50.261,107.628 44.167 C 107.307 39.314,107.341 37.028,107.740 36.736 C 108.184 36.412,108.201 36.414,111.407 37.173 M149.472 40.895 C 149.505 41.064,149.449 41.285,149.348 41.386 C 149.093 41.640,148.585 41.120,148.727 40.751 C 148.864 40.394,149.395 40.497,149.472 40.895 M131.000 41.671 C 134.684 42.346,134.732 42.389,134.794 45.044 C 134.818 46.074,134.946 47.292,135.077 47.750 C 135.359 48.728,135.606 50.809,135.841 54.167 C 135.934 55.496,136.079 57.146,136.164 57.833 C 136.249 58.521,136.322 59.708,136.326 60.472 C 136.330 61.235,136.407 62.548,136.496 63.388 C 137.549 73.281,137.648 78.347,136.799 78.897 C 136.329 79.202,130.774 80.911,120.250 83.990 C 117.133 84.901,114.255 85.764,113.854 85.907 C 111.334 86.804,110.917 85.986,110.508 79.333 C 110.420 77.912,110.270 76.346,110.174 75.852 C 110.078 75.358,109.998 74.458,109.997 73.852 C 109.995 73.246,109.918 72.262,109.826 71.667 C 109.663 70.608,109.515 68.496,109.177 62.417 C 109.086 60.767,108.927 58.502,108.824 57.385 C 108.598 54.919,108.608 54.885,109.961 53.366 C 111.468 51.675,112.345 51.071,124.000 43.699 C 125.513 42.742,126.938 41.827,127.167 41.666 C 127.396 41.504,127.733 41.335,127.917 41.289 C 128.100 41.243,128.250 41.197,128.250 41.186 C 128.250 41.176,129.487 41.394,131.000 41.671 M248.168 68.315 C 254.710 69.830,262.299 71.745,263.120 72.088 C 265.841 73.225,269.893 76.812,271.113 79.163 L 271.580 80.063 271.695 85.073 C 271.758 87.829,271.909 93.908,272.030 98.583 C 272.325 109.981,272.291 116.275,271.932 116.971 C 271.511 117.784,269.824 118.638,264.417 120.776 C 263.133 121.283,260.621 122.319,258.833 123.077 C 249.828 126.897,247.159 127.853,246.493 127.496 C 245.722 127.084,245.692 126.408,245.424 103.000 C 245.338 95.430,245.231 87.522,245.059 75.875 C 244.951 68.551,244.972 68.266,245.630 68.025 C 245.879 67.934,246.084 67.854,246.085 67.846 C 246.086 67.839,247.024 68.050,248.168 68.315 M270.988 74.310 C 271.222 74.748,270.850 75.215,270.326 75.141 C 269.915 75.083,269.726 74.686,269.897 74.240 C 270.030 73.894,270.791 73.942,270.988 74.310 M286.000 127.783 C 284.438 128.348,284.356 128.546,284.295 131.887 C 284.244 134.701,284.303 134.838,285.574 134.828 C 286.975 134.817,287.167 134.357,287.167 131.000 C 287.167 127.781,287.032 127.410,286.000 127.783 " stroke="none" fill="#3f3f31" fill-rule="evenodd"></path><path id="path1" d="M123.535 0.256 C 123.417 0.390,123.033 0.500,122.681 0.500 C 122.330 0.500,121.723 0.612,121.333 0.750 C 120.944 0.887,120.301 1.000,119.906 1.000 C 119.511 1.000,118.714 1.103,118.135 1.230 C 117.557 1.356,116.521 1.551,115.833 1.664 C 115.146 1.777,114.208 1.970,113.750 2.093 C 112.033 2.555,108.524 3.186,106.833 3.336 C 103.768 3.608,102.420 3.819,100.900 4.263 C 99.240 4.747,96.301 5.252,93.667 5.506 C 91.443 5.720,88.233 6.271,86.833 6.679 C 86.237 6.853,84.594 7.146,83.180 7.332 C 81.767 7.517,80.342 7.740,80.013 7.827 C 78.907 8.119,74.387 8.843,72.729 8.992 C 71.824 9.074,70.146 9.340,69.000 9.582 C 65.121 10.404,62.115 10.910,58.667 11.324 C 56.169 11.623,54.944 11.836,53.834 12.163 C 52.853 12.452,50.738 12.810,45.417 13.587 C 44.408 13.735,43.058 13.960,42.417 14.088 C 41.775 14.216,40.087 14.441,38.667 14.587 C 35.800 14.883,35.333 15.087,35.333 16.046 C 35.333 17.114,36.246 17.572,39.708 18.242 C 42.867 18.853,42.884 18.865,43.086 20.710 C 43.285 22.524,43.523 22.650,48.667 23.655 C 50.087 23.933,52.179 24.423,53.315 24.744 C 54.450 25.065,56.288 25.513,57.398 25.738 C 58.508 25.964,60.627 26.452,62.106 26.821 C 63.585 27.191,65.498 27.611,66.356 27.755 C 68.388 28.095,72.720 29.089,73.858 29.476 C 74.348 29.643,75.950 30.028,77.417 30.331 C 78.883 30.634,81.396 31.165,83.000 31.510 C 85.799 32.113,86.586 32.296,92.000 33.608 C 95.330 34.415,99.011 35.234,101.559 35.734 C 104.597 36.330,104.443 36.088,104.668 40.644 C 104.756 42.444,104.940 44.779,105.076 45.833 C 105.501 49.139,105.667 51.120,105.667 52.917 C 105.667 54.649,105.792 56.183,106.263 60.206 C 106.400 61.373,106.657 64.410,106.835 66.956 C 107.013 69.501,107.238 72.708,107.335 74.083 C 107.432 75.458,107.586 77.296,107.679 78.167 C 108.626 87.125,108.744 86.401,106.167 87.419 C 102.924 88.699,100.222 90.288,98.921 91.679 C 96.238 94.547,95.040 101.178,96.080 107.411 C 96.577 110.396,96.744 110.667,98.090 110.667 C 99.726 110.667,100.166 109.854,99.576 107.917 C 98.366 103.941,98.642 98.449,100.201 95.464 C 101.947 92.122,102.860 91.534,109.333 89.579 C 110.754 89.150,112.554 88.588,113.333 88.330 C 114.112 88.071,115.912 87.584,117.333 87.247 C 118.754 86.910,121.342 86.271,123.083 85.826 C 124.825 85.382,127.150 84.817,128.250 84.572 C 129.350 84.327,132.267 83.457,134.731 82.639 C 137.196 81.822,139.708 81.044,140.315 80.911 C 140.921 80.778,141.958 80.523,142.619 80.344 C 148.765 78.681,150.469 80.552,150.769 89.295 C 150.903 93.201,151.003 93.520,152.186 93.838 C 154.404 94.436,154.623 93.976,154.268 89.455 C 153.424 78.715,150.982 76.088,142.793 77.115 C 139.904 77.477,140.147 77.763,139.899 73.708 C 139.616 69.086,138.952 61.761,138.421 57.417 C 138.287 56.317,138.175 54.738,138.172 53.908 C 138.164 51.771,137.875 48.173,137.571 46.446 C 137.138 43.988,137.437 43.571,139.274 44.072 C 139.811 44.218,141.637 44.641,143.333 45.012 C 145.029 45.382,147.242 45.870,148.250 46.095 C 149.258 46.320,151.021 46.694,152.167 46.926 C 154.373 47.372,158.274 48.297,162.000 49.257 C 163.237 49.576,165.090 49.989,166.116 50.175 C 168.715 50.646,172.226 51.445,173.417 51.835 C 173.967 52.016,175.540 52.390,176.913 52.667 C 178.286 52.945,180.162 53.387,181.082 53.651 C 182.002 53.915,183.766 54.330,185.002 54.574 C 189.101 55.383,191.901 56.006,193.250 56.411 C 194.898 56.906,199.292 57.925,200.417 58.074 C 200.875 58.135,202.450 58.477,203.917 58.835 C 205.383 59.193,207.483 59.677,208.583 59.910 C 209.683 60.144,211.258 60.512,212.083 60.727 C 216.159 61.792,218.384 62.330,219.750 62.579 C 222.086 63.005,225.458 63.800,226.833 64.247 C 227.521 64.471,229.171 64.885,230.500 65.167 C 233.720 65.851,234.505 66.031,237.250 66.716 C 238.533 67.037,239.857 67.346,240.192 67.404 C 241.234 67.584,241.248 67.644,241.265 71.817 C 241.273 73.889,241.344 77.608,241.424 80.083 C 241.503 82.558,241.584 86.271,241.602 88.333 C 241.637 92.190,241.813 99.863,242.189 114.000 C 242.426 122.904,242.456 128.006,242.277 128.709 C 242.176 129.105,241.764 129.366,239.288 130.601 C 229.430 135.520,227.430 139.695,227.525 155.167 C 227.562 161.294,227.719 161.653,230.367 161.663 C 232.687 161.672,232.706 161.598,232.091 155.000 C 231.578 149.504,232.259 143.881,233.838 140.573 C 235.122 137.884,239.121 134.838,243.870 132.933 C 245.106 132.436,246.499 131.837,246.964 131.601 C 248.317 130.916,251.600 129.528,253.500 128.838 C 254.463 128.488,256.225 127.774,257.417 127.251 C 258.608 126.728,260.670 125.849,261.998 125.298 C 263.325 124.748,265.050 123.977,265.831 123.585 C 268.012 122.490,271.782 120.848,273.121 120.410 C 273.783 120.194,274.916 119.757,275.638 119.439 C 280.705 117.211,282.674 117.788,283.740 121.813 C 284.350 124.114,284.746 124.388,286.315 123.593 C 287.753 122.864,287.810 122.092,286.646 119.089 C 284.899 114.582,282.426 113.333,277.548 114.493 C 275.136 115.067,275.254 115.168,275.229 112.500 C 275.036 91.465,275.052 74.549,275.266 74.213 C 275.435 73.948,275.988 73.694,277.209 73.321 C 278.148 73.035,279.738 72.423,280.742 71.962 C 282.932 70.957,285.497 69.992,287.275 69.504 C 287.992 69.307,290.002 68.578,291.741 67.883 C 293.480 67.188,295.844 66.304,296.993 65.919 C 298.143 65.534,299.983 64.846,301.083 64.390 C 302.183 63.934,303.796 63.326,304.667 63.037 C 305.537 62.749,307.675 62.015,309.417 61.406 C 311.158 60.796,313.933 59.832,315.583 59.262 C 317.233 58.692,319.183 57.955,319.917 57.624 C 321.588 56.870,324.939 55.654,327.177 54.989 C 328.116 54.710,329.642 54.179,330.568 53.809 C 331.493 53.439,333.637 52.647,335.333 52.050 C 337.029 51.452,338.904 50.740,339.500 50.468 C 341.061 49.753,342.851 49.090,346.167 47.997 C 352.992 45.749,355.036 44.616,355.245 42.965 C 355.307 42.480,355.397 41.945,355.445 41.776 C 355.549 41.412,358.022 40.215,361.417 38.885 C 364.404 37.716,364.741 37.504,365.097 36.571 C 365.683 35.037,364.881 33.952,363.011 33.749 C 361.645 33.601,360.272 33.370,358.583 33.003 C 357.758 32.824,355.771 32.557,354.167 32.411 C 351.570 32.175,349.257 31.847,344.917 31.100 C 342.559 30.695,340.940 30.498,339.977 30.499 C 339.460 30.500,338.447 30.394,337.727 30.264 C 337.006 30.134,335.929 29.980,335.333 29.922 C 334.737 29.864,333.640 29.674,332.893 29.499 C 331.220 29.108,329.337 28.848,326.833 28.663 C 324.776 28.511,323.921 28.396,320.167 27.760 C 318.837 27.535,316.962 27.270,316.000 27.171 C 315.037 27.072,313.612 26.849,312.833 26.675 C 311.193 26.309,309.401 26.070,306.577 25.839 C 304.058 25.634,301.334 25.249,299.500 24.838 C 297.766 24.450,296.064 24.218,293.333 23.998 C 291.143 23.822,286.732 23.227,286.486 23.075 C 285.974 22.758,280.985 22.067,278.843 22.015 C 278.070 21.996,277.393 21.954,277.339 21.920 C 277.285 21.887,276.605 21.773,275.829 21.668 C 275.052 21.564,273.967 21.375,273.417 21.251 C 272.867 21.126,271.629 20.937,270.667 20.830 C 269.704 20.724,267.717 20.426,266.250 20.168 C 262.650 19.535,261.105 19.331,259.917 19.333 C 258.815 19.335,256.302 18.984,253.792 18.479 C 251.420 18.001,247.884 17.502,246.865 17.501 C 246.379 17.500,245.441 17.420,244.782 17.323 C 244.123 17.225,243.096 17.074,242.500 16.986 C 241.904 16.899,240.629 16.683,239.667 16.507 C 236.746 15.971,234.562 15.667,233.633 15.665 C 232.300 15.663,226.593 14.847,226.196 14.602 C 226.126 14.558,224.722 14.365,223.076 14.172 C 221.430 13.979,219.821 13.754,219.500 13.673 C 218.560 13.436,215.575 13.024,213.417 12.833 C 210.324 12.561,207.757 12.200,205.750 11.754 C 204.742 11.531,203.054 11.266,202.000 11.167 C 196.941 10.690,195.451 10.494,192.583 9.926 C 190.022 9.418,188.156 9.164,187.000 9.166 C 185.922 9.168,183.414 8.814,180.500 8.249 C 179.354 8.026,177.329 7.725,176.000 7.580 C 174.671 7.435,172.571 7.129,171.333 6.900 C 170.096 6.672,168.108 6.418,166.917 6.337 C 164.628 6.181,160.648 5.630,159.667 5.333 C 158.943 5.114,154.183 4.500,153.208 4.500 C 152.282 4.500,148.070 3.908,146.667 3.581 C 145.217 3.244,141.605 2.725,139.750 2.589 C 137.912 2.453,133.902 1.883,133.333 1.675 C 133.104 1.592,132.129 1.401,131.167 1.252 C 130.204 1.103,128.967 0.902,128.417 0.805 C 127.867 0.709,126.929 0.595,126.333 0.552 C 125.737 0.509,125.084 0.367,124.881 0.237 C 124.410 -0.065,123.811 -0.057,123.535 0.256 M39.137 16.264 C 39.932 16.409,41.746 16.780,43.167 17.087 C 44.587 17.395,47.175 17.921,48.917 18.256 C 55.204 19.467,57.932 20.000,58.750 20.177 C 59.208 20.276,62.846 21.023,66.833 21.837 C 70.821 22.651,75.508 23.616,77.250 23.981 C 78.992 24.345,82.592 25.093,85.250 25.643 C 87.908 26.192,91.021 26.838,92.167 27.078 C 93.313 27.317,95.525 27.778,97.083 28.101 C 99.704 28.645,101.330 28.991,108.833 30.601 C 110.346 30.925,112.558 31.410,113.750 31.678 C 114.942 31.946,116.817 32.349,117.917 32.573 C 119.847 32.967,124.265 33.890,130.000 35.098 C 131.512 35.417,133.800 35.895,135.083 36.162 C 136.367 36.428,138.054 36.795,138.833 36.978 C 139.612 37.161,141.037 37.469,142.000 37.664 C 144.781 38.225,148.027 39.007,148.642 39.264 C 148.953 39.394,149.592 39.500,150.062 39.501 C 151.181 39.501,153.579 39.922,155.250 40.411 C 155.983 40.625,156.908 40.888,157.304 40.994 C 157.700 41.101,158.263 41.416,158.554 41.695 C 159.079 42.199,159.095 42.203,160.425 42.096 C 161.572 42.004,162.186 42.073,164.675 42.574 C 169.536 43.554,173.758 44.441,177.000 45.164 C 178.696 45.542,180.908 46.028,181.917 46.245 C 184.643 46.831,187.438 47.440,190.333 48.078 C 191.754 48.391,194.267 48.922,195.917 49.258 C 197.567 49.593,200.342 50.193,202.083 50.591 C 203.825 50.988,207.650 51.850,210.583 52.506 C 213.517 53.162,216.967 53.951,218.250 54.260 C 219.533 54.568,222.196 55.164,224.167 55.584 C 226.137 56.004,228.537 56.538,229.500 56.771 C 231.131 57.167,232.065 57.370,238.125 58.651 C 239.385 58.917,241.018 59.290,241.753 59.478 C 242.487 59.666,243.837 59.972,244.753 60.158 C 248.262 60.869,261.192 63.586,264.250 64.254 C 266.664 64.781,271.719 65.703,272.667 65.789 C 274.138 65.923,288.223 61.537,294.985 58.840 C 296.322 58.307,297.679 57.794,298.000 57.701 C 298.321 57.608,299.746 57.103,301.167 56.579 C 304.712 55.271,307.085 54.420,309.250 53.679 C 310.258 53.334,312.508 52.544,314.250 51.924 C 315.992 51.303,319.329 50.139,321.667 49.336 C 324.004 48.534,328.242 47.071,331.083 46.086 C 333.925 45.100,336.925 44.080,337.750 43.819 C 338.575 43.557,341.087 42.713,343.333 41.942 C 347.127 40.640,353.970 38.309,360.494 36.097 C 363.929 34.933,364.333 34.923,364.333 36.004 C 364.333 36.725,363.742 37.084,360.081 38.590 C 354.886 40.726,355.009 40.666,354.742 41.182 C 354.609 41.440,354.500 42.019,354.500 42.469 C 354.500 44.189,354.297 44.297,344.500 47.839 C 341.521 48.916,336.871 50.620,334.167 51.626 C 331.462 52.632,327.862 53.923,326.167 54.496 C 324.471 55.070,321.921 56.009,320.500 56.584 C 319.079 57.159,316.867 57.971,315.583 58.387 C 306.609 61.300,303.718 62.281,301.000 63.337 C 299.304 63.996,296.417 65.054,294.583 65.688 C 292.750 66.323,290.575 67.101,289.750 67.416 C 288.925 67.732,286.900 68.488,285.250 69.097 C 283.600 69.705,281.313 70.675,280.167 71.252 C 279.021 71.828,277.353 72.538,276.460 72.830 C 275.286 73.213,274.740 73.483,274.486 73.805 L 274.136 74.250 274.196 94.667 C 274.245 111.185,274.298 115.158,274.476 115.475 C 274.736 115.938,274.931 115.924,277.396 115.270 C 281.711 114.125,284.180 115.304,285.845 119.305 C 286.658 121.257,286.701 122.382,285.980 122.822 C 285.060 123.383,284.909 123.249,284.392 121.413 C 282.728 115.503,282.162 115.557,264.417 123.305 C 262.950 123.945,259.875 125.256,257.583 126.217 C 255.292 127.179,251.954 128.584,250.167 129.340 C 248.379 130.095,245.867 131.156,244.583 131.696 C 240.014 133.620,236.672 135.514,235.667 136.749 C 235.200 137.322,234.118 138.000,233.671 138.000 C 232.783 138.000,232.417 138.672,232.413 140.306 C 232.411 141.492,232.265 142.302,231.601 144.833 L 230.791 147.917 230.882 152.500 C 230.965 156.665,231.006 157.175,231.337 158.083 C 232.043 160.018,231.664 161.261,230.386 161.205 C 228.609 161.128,227.969 159.964,228.585 157.933 C 228.786 157.271,228.814 156.433,228.737 153.516 C 228.382 140.238,230.523 135.598,238.790 131.727 C 242.411 130.032,242.749 129.851,242.973 129.487 C 243.330 128.906,243.539 125.969,243.428 123.083 C 243.371 121.617,243.250 116.854,243.158 112.500 C 243.067 108.146,242.871 101.621,242.723 98.000 C 242.470 91.831,242.432 89.729,242.514 86.667 C 242.533 85.979,242.462 83.514,242.358 81.190 C 242.253 78.865,242.167 74.913,242.167 72.409 C 242.167 69.904,242.095 67.666,242.007 67.435 C 241.758 66.780,241.273 66.619,235.417 65.255 C 232.392 64.549,228.229 63.567,226.167 63.070 C 220.308 61.661,213.369 60.043,210.083 59.320 C 208.433 58.957,205.996 58.401,204.667 58.083 C 203.338 57.766,201.500 57.360,200.583 57.180 C 199.667 57.000,197.304 56.469,195.333 55.999 C 193.362 55.529,189.275 54.582,186.250 53.895 C 180.716 52.637,177.233 51.839,171.083 50.419 C 169.250 49.996,167.225 49.545,166.583 49.418 C 164.708 49.047,162.479 48.537,158.917 47.665 C 157.083 47.216,154.683 46.657,153.583 46.422 C 152.483 46.187,150.421 45.734,149.000 45.416 C 138.690 43.101,137.869 42.945,137.291 43.184 C 136.527 43.501,136.525 43.543,137.090 49.750 C 137.232 51.308,137.413 53.708,137.492 55.083 C 137.571 56.458,137.716 58.146,137.815 58.833 C 138.015 60.228,138.266 62.742,138.504 65.750 C 138.591 66.850,138.735 68.387,138.823 69.167 C 138.912 69.946,139.070 71.971,139.173 73.667 C 139.277 75.362,139.453 77.012,139.564 77.333 L 139.765 77.917 140.841 77.913 C 141.433 77.911,142.757 77.812,143.783 77.692 C 150.013 76.966,152.546 79.572,153.398 87.583 C 153.970 92.962,153.948 93.167,152.793 93.167 C 151.901 93.167,151.667 92.789,151.666 91.349 C 151.665 87.735,150.993 83.506,150.152 81.817 C 148.297 78.092,146.564 78.099,134.833 81.879 C 132.498 82.631,127.519 83.991,122.500 85.248 C 107.539 88.994,104.011 90.182,100.942 92.505 C 99.547 93.561,99.599 93.451,98.394 97.917 C 97.728 100.385,97.915 105.531,98.769 108.242 C 99.106 109.311,99.006 109.647,98.271 109.908 C 97.517 110.177,97.156 109.636,96.983 107.976 C 96.322 101.650,96.556 97.520,97.703 95.257 C 99.430 91.850,102.171 89.647,106.823 87.926 C 109.372 86.983,109.372 86.983,108.785 80.833 C 108.474 77.575,108.099 73.072,107.828 69.333 C 107.738 68.096,107.593 66.296,107.507 65.333 C 107.420 64.371,107.230 62.196,107.084 60.500 C 106.938 58.804,106.747 56.729,106.659 55.888 C 106.572 55.048,106.500 53.808,106.500 53.134 C 106.500 52.460,106.420 51.272,106.322 50.496 C 106.224 49.719,106.079 48.183,106.000 47.083 C 105.296 37.266,105.127 36.085,104.373 35.692 C 104.214 35.609,103.033 35.303,101.750 35.011 C 100.467 34.719,98.479 34.263,97.333 33.997 C 96.188 33.730,93.900 33.206,92.250 32.831 C 90.600 32.456,88.462 31.961,87.500 31.731 C 86.537 31.501,83.387 30.791,80.500 30.152 C 77.612 29.513,74.714 28.845,74.058 28.667 C 72.838 28.336,71.455 28.018,67.500 27.159 C 66.262 26.890,63.675 26.297,61.750 25.840 C 55.507 24.358,50.976 23.305,48.059 22.659 C 44.636 21.901,44.215 21.716,44.091 20.916 C 44.041 20.596,43.958 20.068,43.908 19.743 C 43.716 18.515,43.213 18.212,40.040 17.412 C 36.921 16.627,36.833 16.594,36.833 16.240 C 36.833 15.929,37.328 15.934,39.137 16.264 M107.740 36.736 C 107.341 37.028,107.307 39.314,107.628 44.167 C 108.031 50.261,108.192 51.041,109.092 51.267 C 109.560 51.385,109.403 51.476,113.699 48.594 C 115.194 47.591,118.067 45.729,120.083 44.456 C 125.780 40.859,125.871 40.644,122.080 39.744 C 121.074 39.505,118.900 38.980,117.250 38.578 C 108.264 36.384,108.231 36.378,107.740 36.736 M111.489 38.019 C 112.824 38.305,114.967 38.803,116.250 39.127 C 117.533 39.451,119.393 39.892,120.382 40.108 C 124.205 40.943,124.200 41.282,120.333 43.442 C 119.554 43.877,117.792 44.989,116.417 45.912 C 115.042 46.836,113.543 47.809,113.086 48.075 C 112.630 48.342,111.700 48.959,111.020 49.446 C 109.236 50.726,109.135 50.679,108.832 48.417 C 108.453 45.587,108.053 38.644,108.228 37.943 C 108.371 37.375,108.489 37.377,111.489 38.019 M148.727 40.751 C 148.585 41.120,149.093 41.640,149.348 41.386 C 149.607 41.126,149.468 40.598,149.123 40.531 C 148.963 40.501,148.785 40.599,148.727 40.751 M127.917 41.289 C 127.733 41.335,127.396 41.504,127.167 41.666 C 126.938 41.827,125.513 42.742,124.000 43.699 C 112.345 51.071,111.468 51.675,109.961 53.366 C 108.608 54.885,108.598 54.919,108.824 57.385 C 108.927 58.502,109.086 60.767,109.177 62.417 C 109.515 68.496,109.663 70.608,109.826 71.667 C 109.918 72.262,109.995 73.246,109.997 73.852 C 109.998 74.458,110.078 75.358,110.174 75.852 C 110.270 76.346,110.420 77.912,110.508 79.333 C 110.917 85.986,111.334 86.804,113.854 85.907 C 114.255 85.764,117.133 84.901,120.250 83.990 C 130.774 80.911,136.329 79.202,136.799 78.897 C 137.648 78.347,137.549 73.281,136.496 63.388 C 136.407 62.548,136.330 61.235,136.326 60.472 C 136.322 59.708,136.249 58.521,136.164 57.833 C 136.079 57.146,135.934 55.496,135.841 54.167 C 135.606 50.809,135.359 48.728,135.077 47.750 C 134.946 47.292,134.818 46.074,134.794 45.044 C 134.732 42.389,134.684 42.346,131.000 41.671 C 129.487 41.394,128.250 41.176,128.250 41.186 C 128.250 41.197,128.100 41.243,127.917 41.289 M131.655 42.635 C 134.030 43.070,134.105 43.173,134.007 45.865 C 133.984 46.509,134.073 47.319,134.218 47.782 C 134.356 48.223,134.627 50.121,134.820 52.000 C 135.012 53.879,135.244 56.106,135.335 56.949 C 135.426 57.791,135.502 59.291,135.505 60.282 C 135.508 61.273,135.617 63.096,135.748 64.333 C 136.321 69.751,136.483 71.777,136.585 74.779 L 136.694 77.974 136.287 78.241 C 135.736 78.602,131.872 79.888,129.417 80.527 C 128.317 80.814,127.096 81.185,126.704 81.353 C 126.032 81.641,122.233 82.734,118.333 83.761 C 117.371 84.015,115.721 84.509,114.667 84.859 C 112.588 85.549,112.286 85.548,111.924 84.847 C 111.652 84.321,111.333 81.567,111.333 79.740 C 111.333 79.067,111.106 76.469,110.828 73.966 C 110.550 71.464,110.289 68.404,110.248 67.167 C 110.165 64.659,109.969 61.628,109.656 57.991 C 109.541 56.657,109.497 55.370,109.557 55.130 C 109.840 54.000,112.688 51.646,117.083 48.909 C 118.458 48.053,120.685 46.631,122.031 45.750 C 127.986 41.853,127.771 41.922,131.655 42.635 M245.630 68.025 C 244.972 68.266,244.951 68.551,245.059 75.875 C 245.231 87.522,245.338 95.430,245.424 103.000 C 245.692 126.408,245.722 127.084,246.493 127.496 C 247.159 127.853,249.828 126.897,258.833 123.077 C 260.621 122.319,263.133 121.283,264.417 120.776 C 269.824 118.638,271.511 117.784,271.932 116.971 C 272.291 116.275,272.325 109.981,272.030 98.583 C 271.909 93.908,271.758 87.829,271.695 85.073 L 271.580 80.063 271.113 79.163 C 270.023 77.062,269.169 76.169,266.362 74.197 C 263.014 71.845,262.844 71.786,252.167 69.252 C 249.515 68.623,246.087 67.831,246.085 67.846 C 246.084 67.854,245.879 67.934,245.630 68.025 M247.233 69.160 C 247.759 69.360,252.321 70.422,253.333 70.580 C 254.277 70.727,258.103 71.676,260.833 72.441 C 264.724 73.530,269.443 77.147,270.586 79.917 C 270.732 80.271,270.993 90.276,271.084 99.000 C 271.115 101.888,271.232 105.538,271.346 107.113 C 271.602 110.659,271.450 116.213,271.082 116.775 C 270.950 116.977,270.371 117.365,269.796 117.639 C 267.150 118.897,264.942 119.846,263.333 120.417 C 262.371 120.759,260.908 121.358,260.083 121.749 C 258.157 122.661,255.244 123.852,253.195 124.566 C 252.309 124.874,250.743 125.473,249.715 125.897 C 247.637 126.753,247.472 126.785,247.145 126.391 C 246.873 126.063,246.656 121.553,246.594 114.917 C 246.572 112.533,246.467 106.646,246.361 101.833 C 245.967 83.908,245.814 69.474,246.017 69.230 C 246.240 68.960,246.646 68.937,247.233 69.160 M269.897 74.240 C 269.726 74.686,269.915 75.083,270.326 75.141 C 270.850 75.215,271.222 74.748,270.988 74.310 C 270.791 73.942,270.030 73.894,269.897 74.240 M285.517 127.053 C 283.660 127.852,283.596 127.982,283.523 131.122 C 283.435 134.927,283.716 135.500,285.667 135.500 C 287.685 135.500,287.917 135.002,287.917 130.659 C 287.917 126.197,287.826 126.061,285.517 127.053 M286.994 127.989 C 287.238 128.445,287.220 133.588,286.973 134.053 C 286.670 134.621,286.306 134.822,285.574 134.828 C 284.303 134.838,284.244 134.701,284.295 131.887 C 284.348 128.988,284.477 128.458,285.216 128.119 C 286.403 127.574,286.758 127.548,286.994 127.989 " stroke="none" fill="#b4ac9c" fill-rule="evenodd"></path><path id="path2" d="M0.000 80.833 L 0.000 161.667 114.708 161.663 C 228.491 161.659,229.411 161.657,228.702 161.335 C 227.596 160.833,227.558 160.633,227.525 155.167 C 227.430 139.695,229.430 135.520,239.288 130.601 C 241.764 129.366,242.176 129.105,242.277 128.709 C 242.456 128.006,242.426 122.904,242.189 114.000 C 241.813 99.863,241.637 92.190,241.602 88.333 C 241.584 86.271,241.503 82.558,241.424 80.083 C 241.344 77.608,241.273 73.889,241.265 71.817 C 241.248 67.644,241.234 67.584,240.192 67.404 C 239.857 67.346,238.533 67.037,237.250 66.716 C 234.505 66.031,233.720 65.851,230.500 65.167 C 229.171 64.885,227.521 64.471,226.833 64.247 C 225.458 63.800,222.086 63.005,219.750 62.579 C 218.384 62.330,216.159 61.792,212.083 60.727 C 211.258 60.512,209.683 60.144,208.583 59.910 C 207.483 59.677,205.383 59.193,203.917 58.835 C 202.450 58.477,200.875 58.135,200.417 58.074 C 199.292 57.925,194.898 56.906,193.250 56.411 C 191.901 56.006,189.101 55.383,185.002 54.574 C 183.766 54.330,182.002 53.915,181.082 53.651 C 180.162 53.387,178.286 52.945,176.913 52.667 C 175.540 52.390,173.967 52.016,173.417 51.835 C 172.226 51.445,168.715 50.646,166.116 50.175 C 165.090 49.989,163.237 49.576,162.000 49.257 C 158.274 48.297,154.373 47.372,152.167 46.926 C 151.021 46.694,149.258 46.320,148.250 46.095 C 147.242 45.870,145.029 45.382,143.333 45.012 C 141.637 44.641,139.811 44.218,139.274 44.072 C 137.437 43.571,137.138 43.988,137.571 46.446 C 137.875 48.173,138.164 51.771,138.172 53.908 C 138.175 54.738,138.287 56.317,138.421 57.417 C 138.952 61.761,139.616 69.086,139.899 73.708 C 140.147 77.763,139.904 77.477,142.793 77.115 C 150.982 76.088,153.424 78.715,154.268 89.455 C 154.623 93.976,154.404 94.436,152.186 93.838 C 151.003 93.520,150.903 93.201,150.769 89.295 C 150.469 80.552,148.765 78.681,142.619 80.344 C 141.958 80.523,140.921 80.778,140.315 80.911 C 139.708 81.044,137.196 81.822,134.731 82.639 C 132.267 83.457,129.350 84.327,128.250 84.572 C 127.150 84.817,124.825 85.382,123.083 85.826 C 121.342 86.271,118.754 86.910,117.333 87.247 C 115.912 87.584,114.112 88.071,113.333 88.330 C 112.554 88.588,110.754 89.150,109.333 89.579 C 102.860 91.534,101.947 92.122,100.201 95.464 C 98.642 98.449,98.366 103.941,99.576 107.917 C 100.166 109.854,99.726 110.667,98.090 110.667 C 96.744 110.667,96.577 110.396,96.080 107.411 C 95.040 101.178,96.238 94.547,98.921 91.679 C 100.222 90.288,102.924 88.699,106.167 87.419 C 108.744 86.401,108.626 87.125,107.679 78.167 C 107.586 77.296,107.432 75.458,107.335 74.083 C 107.238 72.708,107.013 69.501,106.835 66.956 C 106.657 64.410,106.400 61.373,106.263 60.206 C 105.792 56.183,105.667 54.649,105.667 52.917 C 105.667 51.120,105.501 49.139,105.076 45.833 C 104.940 44.779,104.756 42.444,104.668 40.644 C 104.443 36.088,104.597 36.330,101.559 35.734 C 99.011 35.234,95.330 34.415,92.000 33.608 C 86.586 32.296,85.799 32.113,83.000 31.510 C 81.396 31.165,78.883 30.634,77.417 30.331 C 75.950 30.028,74.348 29.643,73.858 29.476 C 72.720 29.089,68.388 28.095,66.356 27.755 C 65.498 27.611,63.585 27.191,62.106 26.821 C 60.627 26.452,58.508 25.964,57.398 25.738 C 56.288 25.513,54.450 25.065,53.315 24.744 C 52.179 24.423,50.087 23.933,48.667 23.655 C 43.523 22.650,43.285 22.524,43.086 20.710 C 42.884 18.865,42.867 18.853,39.708 18.242 C 36.246 17.572,35.333 17.114,35.333 16.046 C 35.333 15.087,35.800 14.883,38.667 14.587 C 40.087 14.441,41.775 14.216,42.417 14.088 C 43.058 13.960,44.408 13.735,45.417 13.587 C 50.738 12.810,52.853 12.452,53.834 12.163 C 54.944 11.836,56.169 11.623,58.667 11.324 C 62.115 10.910,65.121 10.404,69.000 9.582 C 70.146 9.340,71.824 9.074,72.729 8.992 C 74.387 8.843,78.907 8.119,80.013 7.827 C 80.342 7.740,81.767 7.517,83.180 7.332 C 84.594 7.146,86.237 6.853,86.833 6.679 C 88.233 6.271,91.443 5.720,93.667 5.506 C 96.301 5.252,99.240 4.747,100.900 4.263 C 102.420 3.819,103.768 3.608,106.833 3.336 C 108.524 3.186,112.033 2.555,113.750 2.093 C 114.208 1.970,115.146 1.777,115.833 1.664 C 116.521 1.551,117.557 1.356,118.135 1.230 C 118.714 1.103,119.511 1.000,119.906 1.000 C 120.301 1.000,120.944 0.887,121.333 0.750 C 121.723 0.612,122.289 0.500,122.591 0.500 C 123.233 0.500,123.667 0.359,123.667 0.149 C 123.667 0.062,98.006 0.000,61.833 0.000 L 0.000 0.000 0.000 80.833 M124.907 0.255 C 125.085 0.390,125.497 0.510,125.824 0.521 C 126.806 0.557,127.194 0.600,128.500 0.818 C 129.188 0.932,130.462 1.139,131.333 1.276 C 132.204 1.414,133.104 1.594,133.333 1.677 C 133.905 1.883,137.921 2.454,139.750 2.589 C 141.605 2.725,145.217 3.244,146.667 3.581 C 148.070 3.908,152.282 4.500,153.208 4.500 C 154.183 4.500,158.943 5.114,159.667 5.333 C 160.648 5.630,164.628 6.181,166.917 6.337 C 168.108 6.418,170.096 6.672,171.333 6.900 C 172.571 7.129,174.671 7.435,176.000 7.580 C 177.329 7.725,179.354 8.026,180.500 8.249 C 183.414 8.814,185.922 9.168,187.000 9.166 C 188.156 9.164,190.022 9.418,192.583 9.926 C 195.451 10.494,196.941 10.690,202.000 11.167 C 203.054 11.266,204.742 11.531,205.750 11.754 C 207.757 12.200,210.324 12.561,213.417 12.833 C 215.575 13.024,218.560 13.436,219.500 13.673 C 219.821 13.754,221.430 13.979,223.076 14.172 C 224.722 14.365,226.126 14.558,226.196 14.602 C 226.593 14.847,232.300 15.663,233.633 15.665 C 234.566 15.667,236.774 15.975,239.667 16.508 C 240.629 16.686,241.979 16.911,242.667 17.010 C 243.354 17.108,244.373 17.258,244.930 17.344 C 245.488 17.430,246.350 17.500,246.847 17.501 C 247.881 17.502,251.404 17.998,253.792 18.479 C 256.302 18.984,258.815 19.335,259.917 19.333 C 261.105 19.331,262.650 19.535,266.250 20.168 C 267.717 20.426,269.704 20.724,270.667 20.830 C 271.629 20.937,272.867 21.126,273.417 21.251 C 273.967 21.375,275.052 21.564,275.829 21.668 C 276.605 21.773,277.285 21.887,277.339 21.920 C 277.393 21.954,278.070 21.996,278.843 22.015 C 280.985 22.067,285.974 22.758,286.486 23.075 C 286.732 23.227,291.143 23.822,293.333 23.998 C 296.064 24.218,297.766 24.450,299.500 24.838 C 301.334 25.249,304.058 25.634,306.577 25.839 C 309.401 26.070,311.193 26.309,312.833 26.675 C 313.612 26.849,315.037 27.072,316.000 27.171 C 316.962 27.270,318.837 27.535,320.167 27.760 C 323.921 28.396,324.776 28.511,326.833 28.663 C 329.337 28.848,331.220 29.108,332.893 29.499 C 333.640 29.674,334.737 29.864,335.333 29.922 C 335.929 29.980,337.006 30.134,337.727 30.264 C 338.447 30.394,339.460 30.500,339.977 30.499 C 340.940 30.498,342.559 30.695,344.917 31.100 C 349.257 31.847,351.570 32.175,354.167 32.411 C 355.771 32.557,357.758 32.824,358.583 33.003 C 360.272 33.370,361.645 33.601,363.011 33.749 C 364.881 33.952,365.683 35.037,365.097 36.571 C 364.741 37.504,364.404 37.716,361.417 38.885 C 358.022 40.215,355.549 41.412,355.445 41.776 C 355.397 41.945,355.307 42.480,355.245 42.965 C 355.036 44.616,352.992 45.749,346.167 47.997 C 342.851 49.090,341.061 49.753,339.500 50.468 C 338.904 50.740,337.029 51.452,335.333 52.050 C 333.637 52.647,331.493 53.439,330.568 53.809 C 329.642 54.179,328.116 54.710,327.177 54.989 C 324.939 55.654,321.588 56.870,319.917 57.624 C 319.183 57.955,317.233 58.692,315.583 59.262 C 313.933 59.832,311.158 60.796,309.417 61.406 C 307.675 62.015,305.537 62.749,304.667 63.037 C 303.796 63.326,302.183 63.934,301.083 64.390 C 299.983 64.846,298.143 65.534,296.993 65.919 C 295.844 66.304,293.480 67.188,291.741 67.883 C 290.002 68.578,287.992 69.307,287.275 69.504 C 285.497 69.992,282.932 70.957,280.742 71.962 C 279.738 72.423,278.148 73.035,277.209 73.321 C 275.988 73.694,275.435 73.948,275.266 74.213 C 275.052 74.549,275.036 91.465,275.229 112.500 C 275.254 115.168,275.136 115.067,277.548 114.493 C 282.426 113.333,284.899 114.582,286.646 119.089 C 287.810 122.092,287.753 122.864,286.315 123.593 C 284.746 124.388,284.350 124.114,283.740 121.813 C 282.674 117.788,280.705 117.211,275.638 119.439 C 274.916 119.757,273.783 120.194,273.121 120.410 C 271.782 120.848,268.012 122.490,265.831 123.585 C 265.050 123.977,263.325 124.748,261.998 125.298 C 260.670 125.849,258.608 126.728,257.417 127.251 C 256.225 127.774,254.463 128.488,253.500 128.838 C 251.600 129.528,248.317 130.916,246.964 131.601 C 246.499 131.837,245.106 132.436,243.870 132.933 C 234.093 136.856,230.948 142.747,232.091 155.000 C 232.627 160.752,232.611 161.066,231.773 161.472 C 231.527 161.591,257.539 161.648,315.708 161.655 L 400.000 161.667 400.000 80.833 L 400.000 0.000 262.292 0.005 C 141.173 0.010,124.622 0.040,124.907 0.255 M108.228 37.943 C 108.053 38.644,108.453 45.587,108.832 48.417 C 109.135 50.679,109.236 50.726,111.020 49.446 C 111.700 48.959,112.630 48.342,113.086 48.075 C 113.543 47.809,115.042 46.836,116.417 45.912 C 117.792 44.989,119.554 43.877,120.333 43.442 C 124.200 41.282,124.205 40.943,120.382 40.108 C 119.393 39.892,117.533 39.451,116.250 39.127 C 109.946 37.537,108.388 37.307,108.228 37.943 M126.198 43.149 C 125.253 43.698,123.378 44.869,122.031 45.750 C 120.685 46.631,118.458 48.053,117.083 48.909 C 112.688 51.646,109.840 54.000,109.557 55.130 C 109.497 55.370,109.541 56.657,109.656 57.991 C 109.969 61.628,110.165 64.659,110.248 67.167 C 110.289 68.404,110.550 71.464,110.828 73.966 C 111.106 76.469,111.333 79.067,111.333 79.740 C 111.333 81.567,111.652 84.321,111.924 84.847 C 112.286 85.548,112.588 85.549,114.667 84.859 C 115.721 84.509,117.371 84.015,118.333 83.761 C 122.233 82.734,126.032 81.641,126.704 81.353 C 127.096 81.185,128.317 80.814,129.417 80.527 C 131.872 79.888,135.736 78.602,136.287 78.241 L 136.694 77.974 136.585 74.779 C 136.483 71.777,136.321 69.751,135.748 64.333 C 135.617 63.096,135.508 61.273,135.505 60.282 C 135.502 59.291,135.426 57.791,135.335 56.949 C 135.244 56.106,135.012 53.879,134.820 52.000 C 134.627 50.121,134.356 48.223,134.218 47.782 C 134.073 47.319,133.984 46.509,134.007 45.865 C 134.105 43.173,134.030 43.070,131.655 42.635 C 128.211 42.003,128.163 42.008,126.198 43.149 M246.017 69.230 C 245.814 69.474,245.967 83.908,246.361 101.833 C 246.467 106.646,246.572 112.533,246.594 114.917 C 246.656 121.553,246.873 126.063,247.145 126.391 C 247.472 126.785,247.637 126.753,249.715 125.897 C 250.743 125.473,252.309 124.874,253.195 124.566 C 255.244 123.852,258.157 122.661,260.083 121.749 C 260.908 121.358,262.371 120.759,263.333 120.417 C 264.942 119.846,267.150 118.897,269.796 117.639 C 270.371 117.365,270.950 116.977,271.082 116.775 C 271.450 116.213,271.602 110.659,271.346 107.113 C 271.232 105.538,271.115 101.888,271.084 99.000 C 270.993 90.276,270.732 80.271,270.586 79.917 C 269.443 77.147,264.724 73.530,260.833 72.441 C 258.103 71.676,254.277 70.727,253.333 70.580 C 252.321 70.422,247.759 69.360,247.233 69.160 C 246.646 68.937,246.240 68.960,246.017 69.230 M287.621 126.951 C 288.013 127.549,288.064 133.566,287.685 134.466 C 287.056 135.958,284.110 135.879,283.655 134.359 C 283.307 133.199,283.510 128.623,283.934 128.054 C 284.719 126.999,287.172 126.265,287.621 126.951 " stroke="none" fill="#e4e4e4" fill-rule="evenodd"></path></g></svg>